<svg xmlns="http://www.w3.org/2000/svg" xmlns:xlink="http://www.w3.org/1999/xlink" width="146" height="111" version="1.1" viewBox="0 0 146 111"><title>Group 73 Copy</title><desc>Created with Sketch.</desc><g id="Assets" fill="none" fill-rule="evenodd" stroke="none" stroke-width="1"><g id="Artboard-Copy" transform="translate(-1116.000000, -1566.000000)"><g id="Group-73-Copy" transform="translate(1116.000000, 1566.000000)"><rect id="Rectangle-Copy-983" width="145.537" height="110.707" x="0" y="0" fill="#F2F3F7"/><rect id="Rectangle-Copy-1005" width="24.878" height="24.878" x="12.439" y="12.439" fill="#D6D9DD" rx="3"/><rect id="Rectangle-Copy-1053" width="44.78" height="4.976" x="43.537" y="16.171" fill="#D6D9DD" rx="2.488"/><rect id="Rectangle-Copy-1057" width="53.488" height="4.976" x="43.537" y="47.268" fill="#D6D9DD" rx="2.488"/><rect id="Rectangle-Copy-1061" width="38.561" height="4.976" x="43.537" y="78.366" fill="#D6D9DD" rx="2.488"/><rect id="Rectangle-Copy-1065" width="89.561" height="2.488" x="43.537" y="24.878" fill="#D6D9DD" rx="1.244"/><rect id="Rectangle-Copy-1069" width="89.561" height="2.488" x="43.537" y="55.976" fill="#D6D9DD" rx="1.244"/><rect id="Rectangle-Copy-1073" width="89.561" height="2.488" x="43.537" y="87.073" fill="#D6D9DD" rx="1.244"/><rect id="Rectangle-Copy-1077" width="74.634" height="2.488" x="43.537" y="31.098" fill="#D6D9DD" rx="1.244"/><rect id="Rectangle-Copy-1081" width="74.634" height="2.488" x="43.537" y="62.195" fill="#D6D9DD" rx="1.244"/><rect id="Rectangle-Copy-1085" width="74.634" height="2.488" x="43.537" y="93.293" fill="#D6D9DD" rx="1.244"/><rect id="Rectangle-Copy-1089" width="24.878" height="24.878" x="12.439" y="43.537" fill="#D6D9DD" rx="3"/><rect id="Rectangle-Copy-1153" width="24.878" height="24.878" x="12.439" y="74.634" fill="#D6D9DD" rx="3"/></g></g></g></svg>