<svg xmlns="http://www.w3.org/2000/svg" xmlns:xlink="http://www.w3.org/1999/xlink" width="146" height="111" version="1.1" viewBox="0 0 146 111"><title>Group 77 Copy</title><desc>Created with Sketch.</desc><g id="Assets" fill="none" fill-rule="evenodd" stroke="none" stroke-width="1"><g id="Artboard-Copy" transform="translate(-1116.000000, -1812.000000)"><g id="Group-77-Copy" transform="translate(1116.000000, 1812.292683)"><rect id="Rectangle-Copy-999" width="145.537" height="110.707" x="0" y="0" fill="#F2F3F7"/><rect id="Rectangle-Copy-1049" width="49.756" height="85.829" x="12.439" y="12.439" fill="#D6D9DD" rx="3"/><rect id="Rectangle-Copy-1109" width="22.39" height="23.634" x="68.415" y="13.683" fill="#D6D9DD" rx="3"/><rect id="Rectangle-Copy-1113" width="24.878" height="4.976" x="97.024" y="19.902" fill="#D6D9DD" rx="2.488"/><rect id="Rectangle-Copy-1117" width="24.878" height="4.976" x="97.024" y="49.756" fill="#D6D9DD" rx="2.488"/><rect id="Rectangle-Copy-1121" width="24.878" height="4.976" x="97.024" y="79.61" fill="#D6D9DD" rx="2.488"/><rect id="Rectangle-Copy-1125" width="36.073" height="2.488" x="97.024" y="28.61" fill="#D6D9DD" rx="1.244"/><rect id="Rectangle-Copy-1129" width="36.073" height="2.488" x="97.024" y="58.463" fill="#D6D9DD" rx="1.244"/><rect id="Rectangle-Copy-1133" width="36.073" height="2.488" x="97.024" y="88.317" fill="#D6D9DD" rx="1.244"/><rect id="Rectangle-Copy-1145" width="22.39" height="24.878" x="68.415" y="43.537" fill="#D6D9DD" rx="3"/><rect id="Rectangle-Copy-1149" width="22.39" height="23.634" x="68.415" y="74.634" fill="#D6D9DD" rx="3"/></g></g></g></svg>