<svg xmlns="http://www.w3.org/2000/svg" xmlns:xlink="http://www.w3.org/1999/xlink" id="Layer_1" x="0" y="0" version="1.1" viewBox="0 0 146 111" xml:space="preserve" style="enable-background:new 0 0 146 111"><style type="text/css">.st0{fill-rule:evenodd;clip-rule:evenodd;fill:#f2f3f7}.st1{fill:#d6d9dd}.st1,.st2,.st3{fill-rule:evenodd;clip-rule:evenodd}.st2{opacity:.1;enable-background:new}.st3{fill:url(#Rectangle-Copy-1216_1_)}.st4{fill:#fff}.st5{font-family:&apos;Arial-BoldMT&apos;}.st6{font-size:14.0612px}.st7{fill:none}</style><title>Group 77 Copy</title><desc>Created with Sketch.</desc><g><g id="Assets"><g id="Artboard-Copy" transform="translate(-1116.000000, -1812.000000)"><g id="Group-77-Copy" transform="translate(1116.000000, 1812.292683)"><rect id="Rectangle-Copy-999" width="146" height="111" x="0" y="-.3" class="st0"/><path id="Rectangle-Copy-1049" d="M15.5,12.2h43.9c1.7,0,3,1.3,3,3v80c0,1.7-1.3,3-3,3H15.5c-1.7,0-3-1.3-3-3v-80 C12.5,13.5,13.8,12.2,15.5,12.2z" class="st1"/><path id="Rectangle-Copy-1109" d="M71.6,13.4h16.4c1.7,0,3,1.3,3,3v17.7c0,1.7-1.3,3-3,3H71.6c-1.7,0-3-1.3-3-3 V16.4C68.6,14.8,70,13.4,71.6,13.4z" class="st1"/><path id="Rectangle-Copy-1113" d="M99.8,19.7h20c1.4,0,2.5,1.1,2.5,2.5l0,0c0,1.4-1.1,2.5-2.5,2.5h-20 c-1.4,0-2.5-1.1-2.5-2.5l0,0C97.3,20.8,98.4,19.7,99.8,19.7z" class="st1"/><path id="Rectangle-Copy-1117" d="M99.8,49.6h20c1.4,0,2.5,1.1,2.5,2.5l0,0c0,1.4-1.1,2.5-2.5,2.5h-20 c-1.4,0-2.5-1.1-2.5-2.5l0,0C97.3,50.7,98.4,49.6,99.8,49.6z" class="st1"/><path id="Rectangle-Copy-1121" d="M99.8,79.5h20c1.4,0,2.5,1.1,2.5,2.5v0c0,1.4-1.1,2.5-2.5,2.5h-20 c-1.4,0-2.5-1.1-2.5-2.5v0C97.3,80.6,98.4,79.5,99.8,79.5z" class="st1"/><path id="Rectangle-Copy-1125" d="M98.6,28.4h33.7c0.7,0,1.2,0.6,1.2,1.2l0,0c0,0.7-0.6,1.2-1.2,1.2H98.6 c-0.7,0-1.2-0.6-1.2-1.2l0,0C97.3,29,97.9,28.4,98.6,28.4z" class="st1"/><path id="Rectangle-Copy-1129" d="M98.6,58.3h33.7c0.7,0,1.2,0.6,1.2,1.2v0c0,0.7-0.6,1.2-1.2,1.2H98.6 c-0.7,0-1.2-0.6-1.2-1.2v0C97.3,58.9,97.9,58.3,98.6,58.3z" class="st1"/><path id="Rectangle-Copy-1133" d="M98.6,88.3h33.7c0.7,0,1.2,0.6,1.2,1.2l0,0c0,0.7-0.6,1.2-1.2,1.2H98.6 c-0.7,0-1.2-0.6-1.2-1.2l0,0C97.3,88.8,97.9,88.3,98.6,88.3z" class="st1"/><path id="Rectangle-Copy-1145" d="M71.6,43.4h16.4c1.7,0,3,1.3,3,3v18.9c0,1.7-1.3,3-3,3H71.6c-1.7,0-3-1.3-3-3 V46.4C68.6,44.7,70,43.4,71.6,43.4z" class="st1"/><path id="Rectangle-Copy-1149" d="M71.6,74.5h16.4c1.7,0,3,1.3,3,3v17.7c0,1.7-1.3,3-3,3H71.6c-1.7,0-3-1.3-3-3 V77.6C68.6,75.9,70,74.5,71.6,74.5z" class="st1"/></g></g></g><g><rect id="Rectangle-Copy-1217" width="146" height="111.2" x="0" y="-.1" class="st2"/><g><linearGradient id="Rectangle-Copy-1216_1_" x1="-486.02" x2="-485.541" y1="330.938" y2="330.662" gradientTransform="matrix(51.0012 0 0 -23.6347 24848.8828 7873.9771)" gradientUnits="userSpaceOnUse"><stop offset="0" style="stop-color:#ea0081"/><stop offset=".492" style="stop-color:#240de9"/><stop offset="1" style="stop-color:#00feff"/></linearGradient><path id="Rectangle-Copy-1216" d="M59.3,43.6h27.5c6.5,0,11.9,5.3,11.9,11.9v0c0,6.6-5.3,11.9-11.9,11.9H59.3 c-6.5,0-11.9-5.3-11.9-11.9v0C47.4,48.9,52.7,43.6,59.3,43.6z" class="st3"/><text class="st4 st5 st6" transform="matrix(0.9987 0 0 1 59.1738 61.0068)">PRO</text></g></g><rect width="146" height="111.5" x="0" y="-.3" class="st7"/></g></svg>