<svg xmlns="http://www.w3.org/2000/svg" xmlns:xlink="http://www.w3.org/1999/xlink" id="Layer_1" x="0" y="0" version="1.1" viewBox="0 0 32 32" xml:space="preserve" style="enable-background:new 0 0 32 32"><style type="text/css">.st0{fill:#a39dfe}.st1{fill:#e7e6fe}.st2{fill:#665cfe}</style><title>Group 29</title><g><path d="M14.7,31H2.3C1.6,31,1,30.4,1,29.7V17.3C1,16.5,1.6,16,2.3,16h12.4c0.8,0,1.3,0.6,1.3,1.3v12.4 C16,30.4,15.5,31,14.7,31z" class="st0"/><path d="M29.7,31H17.3c-0.8,0-1.3-0.6-1.3-1.3V17.3c0-0.8,0.6-1.3,1.3-1.3h12.4c0.8,0,1.3,0.6,1.3,1.3v12.4 C31,30.4,30.4,31,29.7,31z" class="st1"/><path d="M22.2,16H9.8c-0.8,0-1.3-0.6-1.3-1.3V2.3C8.5,1.6,9.1,1,9.8,1h12.4c0.8,0,1.3,0.6,1.3,1.3v12.3 C23.5,15.4,22.9,16,22.2,16z" class="st2"/></g></svg>