<svg xmlns="http://www.w3.org/2000/svg" xmlns:xlink="http://www.w3.org/1999/xlink" id="Layer_1" x="0" y="0" version="1.1" viewBox="0 0 32 32" xml:space="preserve" style="enable-background:new 0 0 32 32"><style type="text/css">.st0{fill:#daf7f0}.st1{fill:none;stroke:#1fd0a3;stroke-linecap:round;stroke-miterlimit:10;stroke-dasharray:3.3695,3.368}.st2{fill:#1fd0a3}</style><title>Group 29</title><path d="M21.4,23.4h-19c-1.2,0-2-0.9-2-2v-19c0-1.2,0.9-2,2-2h19c1.2,0,2,0.9,2,2v19C23.4,22.6,22.5,23.4,21.4,23.4z" class="st0"/><g><path d="M28.6,30.7H13.2c-1.2,0-2-0.9-2-2V13.2c0-1.2,0.9-2,2-2h15.3c1.2,0,2,0.9,2,2v15.3 C30.6,29.7,29.7,30.7,28.6,30.7z" class="st1"/></g><path d="M28.6,26.4l-1.7-2.3l1.6-1.2c0.5-0.3,0.3-0.9-0.4-1.3l-6.1-3c-0.7-0.3-1.2,0-1,0.7l1,6.7	c0.1,0.7,0.6,1.2,1.2,0.7l1.6-1.2l1.7,2.3c0.2,0.3,0.6,0.3,0.8,0.1l1.3-0.9C28.7,27.2,28.8,26.8,28.6,26.4z" class="st2"/></svg>