<svg xmlns="http://www.w3.org/2000/svg" xmlns:xlink="http://www.w3.org/1999/xlink" id="Layer_1" x="0" y="0" version="1.1" viewBox="0 0 32 32" xml:space="preserve" style="enable-background:new 0 0 32 32"><style type="text/css">.st0{fill:#d5eaff}.st1,.st2{fill-rule:evenodd;clip-rule:evenodd;fill:#3ea8ff}.st2{fill:#1b8fef}</style><title>Group 29</title><g><path id="Rectangle_1_" d="M3.9,0.8h24.3c1.7,0,3,1.3,3,3v24.3c0,1.7-1.3,3-3,3H3.9c-1.7,0-3-1.3-3-3V3.9 C0.8,2.2,2.1,0.8,3.9,0.8z" class="st0"/><path id="Rectangle-Copy-3_1_" d="M0.8,20.4h30.3v7.7c0,1.7-1.3,3-3,3H3.9c-1.7,0-3-1.3-3-3V20.4L0.8,20.4z" class="st1"/><path id="Rectangle-Copy-49_1_" d="M3.9,0.8H16l0,0v19.6H0.8V3.9C0.8,2.2,2.1,0.8,3.9,0.8z" class="st2"/></g></svg>