<svg xmlns="http://www.w3.org/2000/svg" xmlns:xlink="http://www.w3.org/1999/xlink" id="Layer_1" x="0" y="0" version="1.1" viewBox="0 0 42 42" xml:space="preserve" style="enable-background:new 0 0 42 42"><style type="text/css">.st0{fill:url(#SVGID_1_)}.st1{fill:url(#SVGID_2_)}.st2{fill:none;stroke:url(#Layer0_1_1_STROKES_1_);stroke-width:.25;stroke-linecap:round;stroke-linejoin:round}.st3{fill:url(#SVGID_3_)}.st4{fill:none;stroke:#00eaff;stroke-width:.25;stroke-linecap:round;stroke-linejoin:round}.st5{fill:#00eaff}</style><g><g transform="matrix( 1, 0, 0, 1, 0,0)"><g id="Layer0_0_FILL"><linearGradient id="SVGID_1_" x1="5.263" x2="36.638" y1="22.7" y2="22.7" gradientTransform="matrix(1 0 0 -1 0 44)" gradientUnits="userSpaceOnUse"><stop offset="0" style="stop-color:#0000d2"/><stop offset=".545" style="stop-color:#00c0fb"/><stop offset=".733" style="stop-color:#00b4f9"/><stop offset="1" style="stop-color:#047dec"/></linearGradient><path d="M20.9,15.4l-0.1-9.8H9.6C6.7,5.6,5.3,7,5.3,9.9v22.9c0,2.8,1.4,4.3,4.3,4.3h11.6v-2.8H21l0-7.5 c-0.2,0-0.4,0-0.6-0.1l0,6.8H9.4l10.9-6.8C19.1,26.5,18,26,17,25c-1.1-1.1-1.7-2.4-1.6-4c0-1.6,0.6-2.9,1.6-4 C18.1,15.9,19.4,15.4,20.9,15.4z" class="st0"/></g></g></g><g><g transform="matrix( 1, 0, 0, 1, 0,0)"><g id="Layer0_1_FILL"><linearGradient id="SVGID_2_" x1="8.304" x2="33.804" y1="17.053" y2="28.428" gradientTransform="matrix(1 0 0 -1 0 44)" gradientUnits="userSpaceOnUse"><stop offset="0" style="stop-color:#0000d2"/><stop offset=".545" style="stop-color:#00c0fb"/><stop offset=".733" style="stop-color:#00b4f9"/><stop offset="1" style="stop-color:#047dec"/></linearGradient><path d="M20,26.8v13.4c0,0.3,0.1,0.4,0.5,0.4h1.1c0.3,0,0.5-0.1,0.5-0.4V26.8h-0.3v-0.1c-0.1,0-0.3,0-0.4,0.1h-0.6 c-0.1,0-0.2,0-0.3-0.1v0.1H20 M22.1,15.3v-13c0-0.3-0.2-0.4-0.5-0.4h-1.1C20.2,1.9,20,2,20,2.3v13h0.5v0.1c0.2,0,0.4,0,0.6,0 c0.2,0,0.5,0,0.8,0v-0.1H22.1z" class="st1"/></g></g><g transform="matrix( 1, 0, 0, 1, 0,0)"><linearGradient id="Layer0_1_1_STROKES_1_" x1="12.415" x2="29.69" y1="20.081" y2="25.405" gradientTransform="matrix(1 0 0 -1 0 44)" gradientUnits="userSpaceOnUse"><stop offset="0" style="stop-color:#0000d2"/><stop offset=".545" style="stop-color:#00c0fb"/><stop offset=".733" style="stop-color:#00b4f9"/><stop offset="1" style="stop-color:#047dec"/></linearGradient><path id="Layer0_1_1_STROKES" d="M20,15.3v-13c0-0.3,0.1-0.4,0.5-0.4h1.1c0.3,0,0.5,0.1,0.5,0.4v13 M22.1,26.8v13.4 c0,0.3-0.2,0.4-0.5,0.4h-1.1c-0.3,0-0.5-0.1-0.5-0.4V26.8" class="st2"/></g></g><g><g transform="matrix( 1, 0, 0, 1, 0,0)"><g id="Layer0_2_FILL"><linearGradient id="SVGID_3_" x1="24.438" x2="36.563" y1="22.7" y2="22.7" gradientTransform="matrix(1 0 0 -1 0 44)" gradientUnits="userSpaceOnUse"><stop offset="0" style="stop-color:#0088ed"/><stop offset=".58" style="stop-color:#00bcf9"/><stop offset="1" style="stop-color:#00baf9"/></linearGradient><path d="M32.3,5.6h-7.8v2.8h8.2c0.8,0.1,1.2,0.6,1.1,1.6v22.8c0,0.1,0,0.3,0,0.6l-0.1-0.1l-9.3-7.7V37h7.8 c0.5,0,1,0,1.5-0.1c1.9-0.5,2.8-1.9,2.8-4.2V9.9C36.6,7,35.2,5.6,32.3,5.6z" class="st3"/></g></g></g><g><g transform="matrix( 1, 0, 0, 1, 0,0)"><path id="Layer0_3_1_STROKES" d="M26.8,21c0,1.6-0.6,2.9-1.7,4c-1.1,1.1-2.4,1.7-3.9,1.7c-1.6,0-3-0.6-4.1-1.7 s-1.7-2.4-1.6-4c0-1.6,0.6-2.9,1.6-4c1.1-1.1,2.5-1.6,4.1-1.6c1.6,0,2.9,0.6,3.9,1.6C26.2,18.1,26.8,19.5,26.8,21z" class="st4"/></g></g><g><g transform="matrix( 1.124420166015625, 0, 0, 1.124420166015625, -2.65,-2.35)"><g id="Layer0_4_FILL"><path d="M20.2,22.7v-3.4l-2.3,1.5L20.2,22.7z" class="st5"/></g></g></g><g><g transform="matrix( 1, 0, 0, 1, 0,0)"><g id="Layer0_5_FILL"><path d="M24.6,21l-2.5-1.7v3.8L24.6,21z" class="st5"/></g></g></g></svg>