<svg xmlns="http://www.w3.org/2000/svg" xmlns:xlink="http://www.w3.org/1999/xlink" width="146" height="153" version="1.1" viewBox="0 0 146 153"><title>Group 16</title><desc>Created with Sketch.</desc><g id="Assets" fill="none" fill-rule="evenodd" stroke="none" stroke-width="1"><g id="Artboard-Copy" transform="translate(-595.000000, -700.000000)"><g id="Group-16" transform="translate(595.000000, 700.000000)"><rect id="Rectangle-Copy-58" width="146" height="152.239" x="0" y="0" fill="#F2F3F7"/><g id="Group-7" transform="translate(7.487179, 12.478632)"><path id="Combined-Shape" fill="#D6D9DD" d="M127.025641,0 C129.23478,-4.05812251e-16 131.025641,1.790861 131.025641,4 L131.025641,67.1282051 C131.025641,69.3373441 129.23478,71.1282051 127.025641,71.1282051 L69.004,71.128 L64.8888889,76.2852963 L60.763,71.128 L4,71.1282051 C1.790861,71.1282051 8.11897984e-15,69.3373441 0,67.1282051 L0,4 C-2.705415e-16,1.790861 1.790861,4.05812251e-16 4,0 L127.025641,0 Z"/><g id="Group-10" fill="#F2F3F7" transform="translate(12.478632, 34.940171)"><rect id="Rectangle-Copy-6" width="106.068" height="3.744" x="0" y="0" rx="1.5"/><rect id="Rectangle-Copy-16" width="106.068" height="3.744" x="0" y="9.983" rx="1.5"/><rect id="Rectangle-Copy-8" width="76.12" height="3.744" x="0" y="19.966" rx="1.5"/></g><g id="Group-13" fill="#F2F3F7" font-family="FontAwesome" font-size="8" font-weight="normal" transform="translate(12.478632, 12.478632)"><text id="Star---FontAwesome"><tspan x="0" y="7.991"></tspan></text><text id="Star---FontAwesome-Copy"><tspan x="12.479" y="7.991"></tspan></text><text id="Star---FontAwesome-Copy-2"><tspan x="24.957" y="7.991"></tspan></text><text id="Star---FontAwesome-Copy-3"><tspan x="37.436" y="7.991"></tspan></text><text id="Star-Outlined---FontAwesome"><tspan x="49.915" y="7.991"></tspan></text></g></g><circle id="Oval-Copy-5" cx="73.624" cy="108.564" r="11.231" fill="#D6D9DD"/><rect id="Rectangle" width="32.444" height="6.239" x="57.402" y="126.034" fill="#D6D9DD" rx="3"/><rect id="Rectangle-Copy-6" width="49.915" height="2.496" x="48.667" y="136.017" fill="#D6D9DD" rx="1.248"/></g></g></g></svg>